<svg width="7" height="9" viewBox="0 0 7 9" fill="none" xmlns="http://www.w3.org/2000/svg">
<path d="M3.03542 0.400303L3.03542 7.68764L0.780388 5.41319C0.602908 5.25853 0.310589 5.25853 0.13311 5.41319C-0.0443698 5.56785 -0.0443698 5.82259 0.13311 5.97726L3.12416 8.884C3.30164 9.03867 3.59396 9.03867 3.77144 8.884L6.86689 6.14102C7.04437 5.98635 7.04437 5.73161 6.86689 5.57695C6.68941 5.42229 6.39709 5.42229 6.21961 5.57695L3.95414 7.68764L3.95414 0.400303C3.95414 0.181956 3.75056 4.4725e-08 3.49478 4.16748e-08C3.24422 3.86869e-08 3.03542 0.181956 3.03542 0.400303Z" fill="#73D3AB"/>
</svg>
