<svg width="4" height="6" viewBox="0 0 4 6" fill="none" xmlns="http://www.w3.org/2000/svg">
<path d="M1.73453 0.266869L1.73453 5.12509L0.445936 3.60879C0.344519 3.50569 0.17748 3.50569 0.0760627 3.60879C-0.0253542 3.7119 -0.0253542 3.88173 0.0760627 3.98484L1.78523 5.92267C1.88665 6.02578 2.05369 6.02578 2.15511 5.92267L3.92394 4.09401C4.02535 3.9909 4.02535 3.82108 3.92394 3.71797C3.82252 3.61486 3.65548 3.61486 3.55406 3.71797L2.25951 5.12509L2.25951 0.266869C2.25951 0.121304 2.14318 2.55571e-08 1.99702 2.38142e-08C1.85384 2.21068e-08 1.73453 0.121304 1.73453 0.266869Z" fill="#82B5ED"/>
<path d="M1.73453 0.266869L1.73453 5.12509L0.445936 3.60879C0.344519 3.50569 0.17748 3.50569 0.0760627 3.60879C-0.0253542 3.7119 -0.0253542 3.88173 0.0760627 3.98484L1.78523 5.92267C1.88665 6.02578 2.05369 6.02578 2.15511 5.92267L3.92394 4.09401C4.02535 3.9909 4.02535 3.82108 3.92394 3.71797C3.82252 3.61486 3.65548 3.61486 3.55406 3.71797L2.25951 5.12509L2.25951 0.266869C2.25951 0.121304 2.14318 2.55571e-08 1.99702 2.38142e-08C1.85384 2.21068e-08 1.73453 0.121304 1.73453 0.266869Z" stroke="black"/>
</svg>
