<svg width="9" height="9" viewBox="0 0 9 9" fill="none" xmlns="http://www.w3.org/2000/svg">
<path d="M6.78516 4.04297C6.97932 4.04297 7.13672 3.88557 7.13672 3.69141C7.13672 3.49724 6.97932 3.33984 6.78516 3.33984C6.59099 3.33984 6.43359 3.49724 6.43359 3.69141C6.43359 3.88557 6.59099 4.04297 6.78516 4.04297Z" fill="white"/>
<path d="M7.59375 0.703125H7.13672V0.351562C7.13672 0.158203 6.97852 0 6.78516 0C6.5918 0 6.43359 0.158203 6.43359 0.351562V0.703125H4.83398V0.351562C4.83398 0.158203 4.67578 0 4.48242 0C4.28906 0 4.13086 0.158203 4.13086 0.351562V0.703125H2.54883V0.351562C2.54883 0.158203 2.39062 0 2.19727 0C2.00391 0 1.8457 0.158203 1.8457 0.351562V0.703125H1.40625C0.631055 0.703125 0 1.33418 0 2.10938V7.59375C0 8.36895 0.631055 9 1.40625 9H4.0957C4.28906 9 4.44727 8.8418 4.44727 8.64844C4.44727 8.45508 4.28906 8.29688 4.0957 8.29688H1.40625C1.01777 8.29688 0.703125 7.98223 0.703125 7.59375V2.10938C0.703125 1.7209 1.01777 1.40625 1.40625 1.40625H1.8457V1.75781C1.8457 1.95117 2.00391 2.10938 2.19727 2.10938C2.39062 2.10938 2.54883 1.95117 2.54883 1.75781V1.40625H4.13086V1.75781C4.13086 1.95117 4.28906 2.10938 4.48242 2.10938C4.67578 2.10938 4.83398 1.95117 4.83398 1.75781V1.40625H6.43359V1.75781C6.43359 1.95117 6.5918 2.10938 6.78516 2.10938C6.97852 2.10938 7.13672 1.95117 7.13672 1.75781V1.40625H7.59375C7.98223 1.40625 8.29688 1.7209 8.29688 2.10938V4.11328C8.29688 4.30664 8.45508 4.46484 8.64844 4.46484C8.8418 4.46484 9 4.30664 9 4.11328V2.10938C9 1.33418 8.36895 0.703125 7.59375 0.703125Z" fill="white"/>
<path d="M6.87305 4.74609C5.70059 4.74609 4.74609 5.70059 4.74609 6.87305C4.74609 8.04551 5.70059 9 6.87305 9C8.04551 9 9 8.04551 9 6.87305C9 5.70059 8.04551 4.74609 6.87305 4.74609ZM6.87305 8.29688C6.0873 8.29688 5.44922 7.65879 5.44922 6.87305C5.44922 6.0873 6.0873 5.44922 6.87305 5.44922C7.65879 5.44922 8.29688 6.0873 8.29688 6.87305C8.29688 7.65879 7.65879 8.29688 6.87305 8.29688Z" fill="white"/>
<path d="M5.25586 4.04297C5.45002 4.04297 5.60742 3.88557 5.60742 3.69141C5.60742 3.49724 5.45002 3.33984 5.25586 3.33984C5.0617 3.33984 4.9043 3.49724 4.9043 3.69141C4.9043 3.88557 5.0617 4.04297 5.25586 4.04297Z" fill="white"/>
<path d="M3.72656 5.57227C3.92073 5.57227 4.07812 5.41487 4.07812 5.2207C4.07812 5.02654 3.92073 4.86914 3.72656 4.86914C3.5324 4.86914 3.375 5.02654 3.375 5.2207C3.375 5.41487 3.5324 5.57227 3.72656 5.57227Z" fill="white"/>
<path d="M2.19727 4.04297C2.39143 4.04297 2.54883 3.88557 2.54883 3.69141C2.54883 3.49724 2.39143 3.33984 2.19727 3.33984C2.0031 3.33984 1.8457 3.49724 1.8457 3.69141C1.8457 3.88557 2.0031 4.04297 2.19727 4.04297Z" fill="white"/>
<path d="M2.19727 5.57227C2.39143 5.57227 2.54883 5.41487 2.54883 5.2207C2.54883 5.02654 2.39143 4.86914 2.19727 4.86914C2.0031 4.86914 1.8457 5.02654 1.8457 5.2207C1.8457 5.41487 2.0031 5.57227 2.19727 5.57227Z" fill="white"/>
<path d="M2.19727 7.10156C2.39143 7.10156 2.54883 6.94416 2.54883 6.75C2.54883 6.55584 2.39143 6.39844 2.19727 6.39844C2.0031 6.39844 1.8457 6.55584 1.8457 6.75C1.8457 6.94416 2.0031 7.10156 2.19727 7.10156Z" fill="white"/>
<path d="M3.72656 7.10156C3.92073 7.10156 4.07812 6.94416 4.07812 6.75C4.07812 6.55584 3.92073 6.39844 3.72656 6.39844C3.5324 6.39844 3.375 6.55584 3.375 6.75C3.375 6.94416 3.5324 7.10156 3.72656 7.10156Z" fill="white"/>
<path d="M3.72656 4.04297C3.92073 4.04297 4.07812 3.88557 4.07812 3.69141C4.07812 3.49724 3.92073 3.33984 3.72656 3.33984C3.5324 3.33984 3.375 3.49724 3.375 3.69141C3.375 3.88557 3.5324 4.04297 3.72656 4.04297Z" fill="white"/>
<path d="M6.34746 7.72734C6.28418 7.67988 6.27363 7.59023 6.3211 7.52695L7.21055 6.37734C7.25801 6.31406 7.34766 6.30351 7.41094 6.35097C7.47422 6.39844 7.48477 6.48808 7.43731 6.55137L6.54785 7.70098C6.49863 7.76426 6.40899 7.7748 6.34746 7.72734Z" fill="white"/>
<path d="M6.4248 6.95215C6.35097 6.95215 6.28066 6.92754 6.2209 6.88184C6.15058 6.82734 6.10488 6.74824 6.09433 6.66035C6.08379 6.57246 6.10664 6.48457 6.16113 6.41426C6.21562 6.34395 6.29472 6.29824 6.38262 6.2877C6.47051 6.27715 6.5584 6.3 6.62871 6.35449C6.69902 6.40899 6.74472 6.48809 6.75527 6.57598C6.76582 6.66387 6.74297 6.75176 6.68847 6.82207C6.63398 6.89238 6.55488 6.93809 6.46699 6.94863C6.45469 6.95215 6.43887 6.95215 6.4248 6.95215ZM6.42656 6.44766C6.41953 6.44766 6.4125 6.44766 6.40547 6.44942C6.35976 6.45469 6.32109 6.47754 6.29297 6.51446C6.26484 6.54961 6.25254 6.59531 6.25957 6.63926C6.2666 6.68321 6.28769 6.72363 6.32461 6.75176C6.35976 6.77988 6.40547 6.79219 6.44941 6.78516C6.49512 6.77988 6.53379 6.75703 6.56191 6.72012C6.59004 6.68496 6.60234 6.63926 6.59531 6.59531C6.59004 6.54961 6.56719 6.51094 6.53027 6.48281C6.50039 6.45996 6.46347 6.44766 6.42656 6.44766Z" fill="white"/>
<path d="M7.30371 7.76953C7.22988 7.76953 7.15957 7.74492 7.0998 7.69922C7.02949 7.64473 6.98379 7.56563 6.97324 7.47774C6.96269 7.38985 6.98554 7.30195 7.04004 7.23164C7.09453 7.16133 7.17363 7.11563 7.26152 7.10508C7.34941 7.09453 7.4373 7.11739 7.50762 7.17188C7.65351 7.28438 7.67988 7.49531 7.56738 7.64121C7.51289 7.71152 7.43379 7.75723 7.3459 7.76778C7.33359 7.76953 7.31777 7.76953 7.30371 7.76953ZM7.30547 7.2668C7.29844 7.2668 7.2914 7.2668 7.28437 7.26856C7.23867 7.27383 7.2 7.29668 7.17187 7.3336C7.14375 7.36875 7.13144 7.41445 7.13847 7.4584C7.14375 7.5041 7.1666 7.54278 7.20351 7.5709C7.23867 7.59902 7.28437 7.61133 7.32832 7.6043C7.37402 7.59903 7.41269 7.57617 7.44082 7.53926C7.46894 7.50235 7.48125 7.4584 7.47422 7.41445C7.46894 7.36875 7.44609 7.33008 7.40918 7.30196C7.3793 7.2791 7.34238 7.2668 7.30547 7.2668Z" fill="white"/>
</svg>
