<svg width="19" height="12" viewBox="0 0 19 12" fill="none" xmlns="http://www.w3.org/2000/svg">
<path d="M18.8857 3.71201C18.7933 3.61216 18.6522 3.55138 18.5063 3.55138H16.6579C16.2006 2.47902 15.6072 1.42402 14.931 1.02894C12.5913 -0.342981 6.39415 -0.342981 4.05928 1.02894C3.38315 1.42836 2.7897 2.47902 2.33245 3.55138H0.484015C0.338086 3.55138 0.197021 3.61216 0.109463 3.71201C0.0170414 3.81187 -0.0218731 3.94645 0.0121771 4.07236L0.284578 5.2576C0.333222 5.46165 0.532658 5.60492 0.761281 5.60492H1.31095C0.780738 6.14761 0.527794 6.83357 0.52293 7.51954C0.518066 8.36614 0.878025 9.13459 1.53957 9.67294C1.5493 9.67728 1.55416 9.68162 1.55903 9.68596V11.3444C1.55903 11.7048 1.88494 11.9957 2.28867 11.9957H3.99605C4.39979 11.9957 4.7257 11.7048 4.7257 11.3444V10.6802H14.2792V11.3444C14.2792 11.7048 14.6051 11.9957 15.0089 11.9957H16.7162C17.12 11.9957 17.4459 11.7048 17.4459 11.3444V9.72504C18.1463 9.15195 18.4771 8.36614 18.482 7.58032C18.4868 6.87265 18.2193 6.16064 17.655 5.60492H18.2388C18.4674 5.60492 18.6668 5.46165 18.7155 5.2576L18.9879 4.07236C19.0122 3.94645 18.9781 3.81621 18.8857 3.71201ZM4.8619 2.11867C6.72493 1.0246 12.2702 1.0246 14.1333 2.11867C14.4932 2.3314 14.9602 3.18669 15.3883 4.23734H3.6069C4.03496 3.18669 4.49707 2.3314 4.8619 2.11867ZM2.67782 7.68452C2.67782 6.97685 3.31991 6.40376 4.11279 6.40376C4.90567 6.40376 5.54776 6.97685 5.54776 7.68452C5.54776 8.39219 4.90567 8.96527 4.11279 8.96527C3.31991 8.96527 2.67782 8.39219 2.67782 7.68452ZM14.897 8.96527C14.1041 8.96527 13.462 8.39219 13.462 7.68452C13.462 6.97685 14.1041 6.40376 14.897 6.40376C15.6899 6.40376 16.3319 6.97685 16.3319 7.68452C16.3319 8.39219 15.6899 8.96527 14.897 8.96527Z" fill="white"/>
</svg>
