<svg width="10" height="8" viewBox="0 0 10 8" fill="none" xmlns="http://www.w3.org/2000/svg">
<path d="M7.95432 6H4.20695C3.66655 6 3.1874 5.6596 3.04115 5.172L1.77452 1.0516C1.72953 0.9024 1.57995 0.8 1.40912 0.8H0.416653C0.186244 0.8 0 0.6208 0 0.4C0 0.1792 0.186244 0 0.416653 0H1.40912C1.94952 0 2.42825 0.3404 2.5745 0.828L2.81157 1.6H9.18428C9.44427 1.6 9.69093 1.7188 9.84384 1.918C9.99551 2.1156 10.0393 2.3628 9.96384 2.5964L9.10428 5.2156C8.93596 5.6884 8.47472 6 7.95432 6Z" fill="white"/>
<path d="M4.58318 8C4.12362 8 3.74988 7.6412 3.74988 7.2C3.74988 6.7588 4.12362 6.4 4.58318 6.4C5.04275 6.4 5.41649 6.7588 5.41649 7.2C5.41649 7.6412 5.04275 8 4.58318 8Z" fill="white"/>
<path d="M7.49976 8C7.04019 8 6.66645 7.6412 6.66645 7.2C6.66645 6.7588 7.04019 6.4 7.49976 6.4C7.95932 6.4 8.33306 6.7588 8.33306 7.2C8.33306 7.6412 7.95932 8 7.49976 8Z" fill="white"/>
</svg>
