<svg width="34" height="29" viewBox="0 0 34 29" fill="none" xmlns="http://www.w3.org/2000/svg">
<path d="M10.8748 6.04558H0.33168V10.3853H10.8748V6.04558Z" fill="white"/>
<path d="M10.8748 11.9134H0.33168V16.4977H10.8748V11.9134Z" fill="white"/>
<path d="M10.8748 18.0258H0.33168V22.4572H10.8748V18.0258Z" fill="white"/>
<path d="M0.385471 23.9548H19.4737V28.1188H5.23436C2.77534 28.1188 0.731272 26.308 0.385471 23.9548Z" fill="white"/>
<path d="M33.3518 4.54805H0.47C0.984859 2.40109 2.92134 0.811874 5.23436 0.811874H28.5797C30.9004 0.811874 32.8369 2.40109 33.3518 4.54805Z" fill="white"/>
<path d="M21.0105 23.9548H33.4363C33.0905 26.308 31.0464 28.1188 28.5797 28.1188H21.0105V23.9548Z" fill="white"/>
<path d="M33.4901 6.04558V9.93456H23.8845C21.4486 9.93456 19.4737 11.8982 19.4737 14.3202V22.4572H12.4116V6.04558H33.4901Z" fill="white"/>
<path d="M23.8845 11.4626H33.4901V16.0393H21.0105V14.3202C21.0105 12.7462 22.3015 11.4626 23.8845 11.4626Z" fill="white"/>
<path d="M33.4901 17.5674H21.0105V22.4572H33.4901V17.5674Z" fill="white"/>
</svg>
