<svg width="15" height="14" viewBox="0 0 15 14" fill="none" xmlns="http://www.w3.org/2000/svg">
<path d="M8.4 1.86667C8.4 1.08219 9.0899 0.4 10 0.4H13C13.9101 0.4 14.6 1.08219 14.6 1.86667V4.66667C14.6 5.45114 13.9101 6.13333 13 6.13333H10C9.0899 6.13333 8.4 5.45114 8.4 4.66667V1.86667ZM8.4 9.33333C8.4 8.54886 9.0899 7.86667 10 7.86667H13C13.9101 7.86667 14.6 8.54886 14.6 9.33333V12.1333C14.6 12.9178 13.9101 13.6 13 13.6H10C9.0899 13.6 8.4 12.9178 8.4 12.1333V9.33333ZM0.4 1.86667C0.4 1.08219 1.0899 0.4 2 0.4H5C5.9101 0.4 6.6 1.08219 6.6 1.86667V12.1333C6.6 12.9178 5.9101 13.6 5 13.6H2C1.0899 13.6 0.4 12.9178 0.4 12.1333V1.86667Z" stroke="white" stroke-width="0.8"/>
</svg>
