<svg width="18" height="11" viewBox="0 0 18 11" fill="none" xmlns="http://www.w3.org/2000/svg">
<path d="M17.2969 11H0.703125C0.314789 11 0 10.7 0 10.33V0.669996C0 0.299957 0.314789 0 0.703125 0H17.2969C17.6852 0 18 0.299957 18 0.669996V10.33C18 10.7 17.6852 11 17.2969 11ZM16.6827 3.26456C16.6827 2.98684 16.4468 2.76206 16.1554 2.76206C15.5742 2.76206 15.1014 2.31149 15.1014 1.75774C15.1014 1.48002 14.8655 1.25524 14.574 1.25524H3.42598C3.13453 1.25524 2.89863 1.48002 2.89863 1.75774C2.89863 2.31149 2.42578 2.76206 1.84465 2.76206C1.5532 2.76206 1.3173 2.98684 1.3173 3.26456V7.73544C1.3173 8.01315 1.5532 8.23794 1.84465 8.23794C2.42578 8.23794 2.89863 8.68851 2.89863 9.24226C2.89863 9.51998 3.13453 9.74476 3.42598 9.74476H14.574C14.8655 9.74476 15.1014 9.51998 15.1014 9.24226C15.1014 8.68851 15.5742 8.23794 16.1554 8.23794C16.4468 8.23794 16.6827 8.01315 16.6827 7.73544V3.26456Z" fill="white"/>
<path d="M14.1135 8.73976H3.88652C3.69527 8.03492 3.11168 7.47882 2.37199 7.29659V3.70339C3.11168 3.52115 3.69527 2.96506 3.88652 2.26022H14.1135C14.3047 2.96506 14.8883 3.52115 15.628 3.70339V7.29659C14.8883 7.47882 14.3047 8.03492 14.1135 8.73976ZM5.07972 4.99749H4.5C4.20855 4.99749 3.97265 5.22261 3.97265 5.49999C3.97265 5.77737 4.20855 6.00249 4.5 6.00249H5.07972C5.37082 6.00249 5.60707 5.77737 5.60707 5.49999C5.60707 5.22261 5.37082 4.99749 5.07972 4.99749ZM9 3.62266C7.91367 3.62266 7.02984 4.46484 7.02984 5.49999C7.02984 6.53513 7.91367 7.37732 9 7.37732C10.0863 7.37732 10.9702 6.53513 10.9702 5.49999C10.9702 4.46484 10.0863 3.62266 9 3.62266ZM13.5 4.99749H12.9203C12.6292 4.99749 12.3929 5.22261 12.3929 5.49999C12.3929 5.77737 12.6292 6.00249 12.9203 6.00249H13.5C13.7914 6.00249 14.0273 5.77737 14.0273 5.49999C14.0273 5.22261 13.7914 4.99749 13.5 4.99749Z" fill="white"/>
<path d="M8.99999 4.62767C9.50559 4.62767 9.91546 5.01823 9.91546 5.50001C9.91546 5.98178 9.50559 6.37234 8.99999 6.37234C8.49439 6.37234 8.08453 5.98178 8.08453 5.50001C8.08453 5.01823 8.49439 4.62767 8.99999 4.62767Z" fill="white"/>
</svg>
