<svg width="11" height="6" viewBox="0 0 11 6" fill="none" xmlns="http://www.w3.org/2000/svg">
<path d="M6.2221 0H1.2035C0.541576 0 0 0.502793 0 1.11732V4.88268C0 5.49721 0.541576 6 1.2035 6H6.2221C6.88403 6 7.4256 5.49721 7.4256 4.88268V1.11732C7.4256 0.49162 6.88403 0 6.2221 0Z" fill="white"/>
<path d="M10.1094 0.614521C10.0372 0.625694 9.96499 0.659214 9.90481 0.692733L8.02735 1.69832V4.2905L9.91685 5.29608C10.2659 5.48603 10.6991 5.3743 10.9037 5.05027C10.9639 4.94971 11 4.83798 11 4.71508V1.26257C11 0.849158 10.5788 0.513963 10.1094 0.614521Z" fill="white"/>
</svg>
