<svg width="23" height="19" viewBox="0 0 23 19" fill="none" xmlns="http://www.w3.org/2000/svg">
<path d="M21.7123 8.26284H21.1651V5.09845C21.1651 3.80454 20.0708 2.75579 18.7311 2.75579H18.2264L18.2311 1.57993C18.2311 0.708244 17.4953 0 16.5896 0H1.99528C0.90566 0 0.0141509 0.844444 0 1.89319C0 1.90227 0 1.91135 0 1.92043V17.4201C0 18.2918 0.735849 19 1.64151 19H18.7358C20.0802 19 21.1698 17.9467 21.1698 16.6573V13.4884H21.717C22.4245 13.4884 23 12.9345 23 12.2535V9.49773C22.9953 8.81673 22.4198 8.26284 21.7123 8.26284ZM1.99528 1.08961H16.5896C16.8679 1.08961 17.0991 1.30753 17.0991 1.57539L17.0943 2.75579H1.99528C1.51887 2.75579 1.13208 2.38351 1.13208 1.92497C1.13208 1.46643 1.51887 1.08961 1.99528 1.08961ZM20.033 16.6528C20.033 17.3429 19.4481 17.9059 18.7311 17.9059H1.63679C1.35849 17.9059 1.12736 17.6879 1.12736 17.4155V3.65472C1.39151 3.7773 1.68396 3.8454 1.99528 3.8454H18.7311C19.4481 3.8454 20.033 4.40836 20.033 5.09845V8.26284H16.1698C15.4623 8.26284 14.8868 8.81673 14.8868 9.49773V12.2535C14.8868 12.9345 15.4623 13.4884 16.1698 13.4884H20.033V16.6528ZM21.8632 12.2535C21.8632 12.3352 21.7972 12.3988 21.7123 12.3988H16.1745C16.0896 12.3988 16.0236 12.3352 16.0236 12.2535V9.49773C16.0236 9.42055 16.0896 9.35245 16.1745 9.35245H21.7123C21.7925 9.35245 21.8632 9.41601 21.8632 9.49773V12.2535Z" fill="#F97A7A"/>
</svg>
