<svg width="8" height="9" viewBox="0 0 8 9" fill="none" xmlns="http://www.w3.org/2000/svg">
<path d="M7.79417 7.6522L0.988149 0H0.701556L0.643036 0.167185C0.488585 0.608466 0.422592 1.0598 0.452219 1.47234C0.485989 1.94259 0.644881 2.34972 0.911744 2.64976L3.77455 5.86848L4.15215 5.44394L6.79881 8.77135C7.06209 9.06736 7.51525 9.08494 7.79417 8.77135C8.06861 8.46278 8.06861 7.96075 7.79417 7.6522Z" fill="white"/>
<path d="M2.44795 5.12299L0.20581 7.64389C-0.0686035 7.95242 -0.0686035 8.45447 0.20581 8.763C0.466497 9.05609 0.91747 9.08197 1.20117 8.763L3.44332 6.24209L2.44795 5.12299Z" fill="white"/>
<path d="M7.66239 1.49852L6.39052 2.92849L6.05871 2.55545L7.33058 1.12546L6.99879 0.752414L5.72693 2.18239L5.39514 1.80935L6.66701 0.379372L6.33523 0.00634671L4.67628 1.87156C4.47333 2.09974 4.35214 2.40272 4.33501 2.72471C4.33068 2.80629 4.31423 2.88654 4.28695 2.96286L5.36461 4.1745C5.43249 4.14379 5.50388 4.12532 5.57642 4.12045C5.86281 4.10124 6.13229 3.96495 6.33523 3.73677L7.99419 1.87158L7.66239 1.49852Z" fill="white"/>
</svg>
