<svg width="81" height="27" viewBox="0 0 81 27" fill="none" xmlns="http://www.w3.org/2000/svg">
<path d="M16.0048 13.2821C16.2895 13.2821 16.5539 13.4066 16.7369 13.5934C16.5945 13.6556 16.4318 13.6972 16.2691 13.6972H9.11072C8.86668 13.6972 8.66332 13.6141 8.48029 13.4896C8.64298 13.3651 8.86668 13.2821 9.11072 13.2821H16.0048Z" fill="white"/>
<path d="M16.6962 12.0369H8.07356V8.19754C8.07356 7.61645 8.5413 7.13912 9.11072 7.13912H16.0048C16.3708 7.13912 16.6962 7.3259 16.8792 7.6372L18.2825 9.92006C18.4858 10.2521 18.4858 10.6464 18.3231 10.9785L17.53 12.4727C17.347 12.2029 17.0419 12.0369 16.6962 12.0369Z" fill="white"/>
<path d="M18.3028 16.0838C18.5062 16.3951 18.5062 16.8101 18.3435 17.1422L17.2046 19.3005C17.0216 19.6326 16.6759 19.8609 16.2895 19.8609H9.11072C8.5413 19.8609 8.07356 19.3836 8.07356 18.8025V14.9631H17.0216C17.2046 14.9631 17.3876 14.9216 17.53 14.8178L18.3028 16.0838Z" fill="white"/>
<path d="M18.8925 0H7.80919C3.49787 0 0 3.56956 0 7.96925V19.0307C0 23.4304 3.49787 27 7.80919 27H18.8925C23.2039 27 26.7017 23.4304 26.7017 19.0307V7.96925C26.7221 3.56956 23.2242 0 18.8925 0ZM19.7467 17.1007L17.9367 20.5457C17.7537 20.8985 17.408 21.1061 17.0216 21.1061H7.8702C7.30078 21.1061 6.83304 20.6287 6.83304 20.0477V6.95234C6.83304 6.37125 7.30078 5.89393 7.8702 5.89393H16.6759C17.0419 5.89393 17.3673 6.08071 17.5503 6.39201L19.6857 9.87855C19.889 10.2106 19.889 10.6049 19.7263 10.937L18.3028 13.7179L19.7263 16.0215C19.9094 16.3536 19.9297 16.7479 19.7467 17.1007Z" fill="white"/>
<path d="M32.1112 20.4835V7.18063H37.9071C40.1644 7.18063 41.5677 8.5711 41.5677 10.5634C41.5677 12.2444 40.4695 13.3443 39.29 13.6141C40.6729 13.8424 41.832 15.2952 41.832 16.8932C41.832 19.0307 40.4492 20.4835 38.0698 20.4835H32.1112ZM39.9001 10.8125C39.9001 9.60876 39.1273 8.65411 37.6631 8.65411H33.7585V12.95H37.6631C39.107 12.95 39.9001 12.0161 39.9001 10.8125ZM40.1441 16.7064C40.1441 15.4819 39.3307 14.4235 37.7444 14.4235H33.7381V19.01H37.7444C39.2493 19.01 40.1441 18.1176 40.1441 16.7064Z" fill="white"/>
<path d="M43.886 13.8424C43.886 9.75403 46.8348 6.9731 50.5767 6.9731C52.8747 6.9731 54.4813 8.09377 55.5185 9.60876L54.1762 10.3766C53.4238 9.2352 52.0613 8.44658 50.5767 8.44658C47.7296 8.44658 45.5536 10.6672 45.5536 13.8424C45.5536 16.9969 47.7296 19.2383 50.5767 19.2383C52.0613 19.2383 53.4238 18.4289 54.1762 17.3082L55.5388 18.0761C54.4406 19.6118 52.8747 20.7325 50.5767 20.7325C46.8348 20.7118 43.886 17.9308 43.886 13.8424Z" fill="white"/>
<path d="M57.6131 20.4835V7.18063H62.0668C66.1341 7.18063 68.7575 10.0653 68.7575 13.8424C68.7575 17.6403 66.1341 20.4835 62.0668 20.4835H57.6131ZM67.0695 13.8424C67.0695 10.9785 65.3003 8.65411 62.0668 8.65411H59.24V19.01H62.0668C65.2393 19.01 67.0695 16.6856 67.0695 13.8424Z" fill="white"/>
<path d="M71.2792 20.4835V7.18063H77.0751C79.3324 7.18063 80.7356 8.5711 80.7356 10.5634C80.7356 12.2444 79.6375 13.3443 78.4579 13.6141C79.8408 13.8424 81 15.2952 81 16.8932C81 19.0307 79.6171 20.4835 77.2378 20.4835H71.2792ZM79.068 10.8125C79.068 9.60876 78.2952 8.65411 76.831 8.65411H72.9264V12.95H76.831C78.2749 12.95 79.068 12.0161 79.068 10.8125ZM79.3121 16.7064C79.3121 15.4819 78.4986 14.4235 76.9124 14.4235H72.9061V19.01H76.9124C78.4173 19.01 79.3121 18.1176 79.3121 16.7064Z" fill="white"/>
</svg>
