<svg width="11" height="13" viewBox="0 0 11 13" fill="none" xmlns="http://www.w3.org/2000/svg">
<path d="M5.09963 10.7767C3.80427 10.7767 2.50892 10.7778 1.21356 10.7761C0.667924 10.7754 0.236689 10.4237 0.127891 9.88667C0.0652496 9.57667 0.125583 9.28749 0.297022 9.0229C0.562753 8.6132 0.827824 8.20282 1.08729 7.78869C1.12455 7.72928 1.14762 7.64871 1.14795 7.57769C1.15191 6.56404 1.14927 5.55072 1.15092 4.53707C1.15389 2.73611 2.2089 1.20999 3.85438 0.62481C6.03199 -0.149857 8.46082 1.26291 8.94349 3.59511C9.00943 3.91296 9.03976 4.24413 9.04372 4.5695C9.05625 5.57018 9.04635 6.57087 9.05064 7.57189C9.05097 7.64666 9.07636 7.73133 9.11559 7.79381C9.3711 8.20043 9.6332 8.60262 9.89366 9.00583C10.1389 9.38548 10.1769 9.78425 9.96817 10.1881C9.76145 10.5883 9.41989 10.7754 8.98602 10.7761C7.69034 10.7781 6.39498 10.7767 5.09963 10.7767Z" fill="#B1B1B1"/>
<path d="M6.47009 11.9164C6.29271 12.5343 5.65443 13.0004 4.99538 13C4.336 13 3.69838 12.5343 3.521 11.9164C4.50348 11.9164 5.48332 11.9164 6.47009 11.9164Z" fill="#B1B1B1"/>
</svg>
