<svg width="16" height="14" viewBox="0 0 16 14" fill="none" xmlns="http://www.w3.org/2000/svg">
<path d="M15.1042 6.08841H14.7235V3.75675C14.7235 2.80335 13.9623 2.03059 13.0304 2.03059H12.6792L12.6825 1.16416C12.6825 0.521864 12.1706 0 11.5406 0H1.38802C0.630025 0 0.00984413 0.622222 0 1.39498C0 1.40167 0 1.40836 0 1.41505V12.8358C0 13.4781 0.511895 14 1.14192 14H13.0336C13.9688 14 14.7268 13.2239 14.7268 12.2738V9.93883H15.1075C15.5997 9.93883 16 9.53071 16 9.02891V6.99833C15.9967 6.49654 15.5964 6.08841 15.1042 6.08841ZM1.38802 0.802867H11.5406C11.7342 0.802867 11.895 0.963441 11.895 1.16081L11.8917 2.03059H1.38802C1.0566 2.03059 0.787531 1.75627 0.787531 1.4184C0.787531 1.08053 1.0566 0.802867 1.38802 0.802867ZM13.936 12.2705C13.936 12.779 13.5291 13.1938 13.0304 13.1938H1.13864C0.945037 13.1938 0.784249 13.0332 0.784249 12.8325V2.69295C0.968006 2.78327 1.17145 2.83345 1.38802 2.83345H13.0304C13.5291 2.83345 13.936 3.24827 13.936 3.75675V6.08841H11.2486C10.7564 6.08841 10.356 6.49654 10.356 6.99833V9.02891C10.356 9.53071 10.7564 9.93883 11.2486 9.93883H13.936V12.2705ZM15.2092 9.02891C15.2092 9.08913 15.1632 9.13596 15.1042 9.13596H11.2518C11.1928 9.13596 11.1468 9.08913 11.1468 9.02891V6.99833C11.1468 6.94146 11.1928 6.89128 11.2518 6.89128H15.1042C15.16 6.89128 15.2092 6.93811 15.2092 6.99833V9.02891Z" fill="white"/>
</svg>
