<svg width="15" height="15" viewBox="0 0 15 15" fill="none" xmlns="http://www.w3.org/2000/svg">
<path d="M5.18512 1.16832C6.56602 0.143894 8.43398 0.143895 9.81488 1.16832L12.9708 3.50955C14.3538 4.53551 14.9365 6.35866 14.4059 8.02581L13.2005 11.814C12.6704 13.4798 11.1536 14.6 9.45047 14.6H5.54952C3.84642 14.6 2.32961 13.4798 1.79952 11.814L0.594062 8.02581C0.0635496 6.35866 0.646201 4.53551 2.02918 3.50955L5.18512 1.16832Z" stroke="white" stroke-width="0.8"/>
<path d="M9 7.5C9 8.32843 8.32843 9 7.5 9C6.67157 9 6 8.32843 6 7.5C6 6.67157 6.67157 6 7.5 6C8.32843 6 9 6.67157 9 7.5Z" fill="white"/>
</svg>
