<svg width="16" height="14" viewBox="0 0 16 14" fill="none" xmlns="http://www.w3.org/2000/svg">
<path d="M12.7269 10.5H6.73111C5.86647 10.5 5.09983 9.9043 4.86584 9.051L2.83924 1.8403C2.76724 1.5792 2.52792 1.4 2.25459 1.4H0.666645C0.29799 1.4 0 1.0864 0 0.7C0 0.3136 0.29799 0 0.666645 0H2.25459C3.11923 0 3.88521 0.5957 4.1192 1.449L4.49852 2.8H14.6949C15.1108 2.8 15.5055 3.0079 15.7502 3.3565C15.9928 3.7023 16.0628 4.1349 15.9421 4.5437L14.5669 9.1273C14.2975 9.9547 13.5596 10.5 12.7269 10.5Z" fill="white"/>
<path d="M7.33309 14C6.59779 14 5.99981 13.3721 5.99981 12.6C5.99981 11.8279 6.59779 11.2 7.33309 11.2C8.0684 11.2 8.66638 11.8279 8.66638 12.6C8.66638 13.3721 8.0684 14 7.33309 14Z" fill="white"/>
<path d="M11.9996 14C11.2643 14 10.6663 13.3721 10.6663 12.6C10.6663 11.8279 11.2643 11.2 11.9996 11.2C12.7349 11.2 13.3329 11.8279 13.3329 12.6C13.3329 13.3721 12.7349 14 11.9996 14Z" fill="white"/>
</svg>
