<svg width="20" height="17" viewBox="0 0 20 17" fill="none" xmlns="http://www.w3.org/2000/svg">
<path d="M16.5187 4.89551H15.0625V3.38922C15.0625 2.52532 14.7326 1.70572 14.1183 1.0744C14.1069 1.06333 14.0841 1.04117 14.0728 1.0301C13.686 0.664601 13.1854 0.387709 12.9465 0.276952C12.9237 0.265877 12.901 0.243725 12.8782 0.243725C12.4687 0.07759 12.025 6.02494e-05 11.5699 6.02494e-05H3.49259C1.55858 -0.0110154 0 1.50635 0 3.38922V6.52364C0 7.71981 0.659839 8.82738 1.70648 9.44762C1.74061 9.46977 1.75199 9.503 1.75199 9.53623V11.2308C1.75199 11.4412 1.87713 11.6295 2.0819 11.7181C2.21842 11.7846 2.49146 11.7735 2.67348 11.6074L4.35721 9.96818C4.37996 9.94603 4.40272 9.93495 4.42547 9.93495H4.89191V11.4412C4.89191 11.8953 4.98292 12.3495 5.16494 12.7593C5.17632 12.7814 5.1877 12.7925 5.1877 12.8146C5.29009 13.0583 5.51762 13.5124 5.98405 13.9111C5.99543 13.9222 6.00681 13.9333 6.01818 13.9443C6.66665 14.5203 7.49713 14.8415 8.37313 14.8415H15.2559C15.2787 14.8415 15.3128 14.8526 15.3242 14.8747L17.3492 16.8462C17.5085 16.968 17.6564 17.0566 17.9408 16.9569C18.1456 16.8794 18.2707 16.6911 18.2707 16.4696V14.4317C18.2707 14.3985 18.2935 14.3652 18.3162 14.3541C19.3629 13.7339 19.9999 12.6485 19.9999 11.4523V8.28467C20.0113 6.41288 18.4414 4.89551 16.5187 4.89551ZM4.90328 9.32579H4.43685C4.25482 9.32579 4.0728 9.39224 3.94766 9.52515L2.36632 11.0647V9.51407C2.36632 9.28148 2.24118 9.0489 2.02502 8.92706C1.13765 8.42866 0.602956 7.4983 0.602956 6.51256V3.38922C0.602956 1.83862 1.89988 0.575996 3.49259 0.575996H11.5927C11.9681 0.575996 12.3322 0.64245 12.6735 0.775358C12.6848 0.775358 12.6962 0.786434 12.7076 0.786434C12.9124 0.886115 13.3447 1.1187 13.6746 1.41775C13.686 1.42882 13.6973 1.45098 13.7087 1.46205C14.2093 1.98261 14.4937 2.6693 14.4937 3.38922V4.89551H8.3845C6.46187 4.89551 4.89191 6.42396 4.89191 8.29575V9.32579H4.90328ZM19.4084 11.4191C19.4084 12.4048 18.885 13.313 18.0204 13.8225C17.8156 13.9443 17.6905 14.1659 17.6905 14.3985V16.2924L15.7679 14.4206C15.6314 14.2877 15.4607 14.2212 15.2787 14.2212H8.3845C7.6564 14.2212 6.96244 13.9554 6.42774 13.4792C6.41636 13.4681 6.39361 13.457 6.38223 13.4459C5.98405 13.1137 5.80203 12.726 5.73377 12.5488C5.72239 12.5267 5.71102 12.4934 5.71102 12.4824C5.71102 12.4713 5.69964 12.4602 5.69964 12.4602C5.56312 12.1279 5.49486 11.7735 5.49486 11.408V8.28467C5.49486 6.73408 6.79179 5.47145 8.3845 5.47145H16.5187C18.1114 5.47145 19.4084 6.73408 19.4084 8.28467V11.4191Z" fill="white"/>
<path d="M3.5 4C3.77614 4 4 3.77614 4 3.5C4 3.22386 3.77614 3 3.5 3C3.22386 3 3 3.22386 3 3.5C3 3.77614 3.22386 4 3.5 4Z" fill="white"/>
<path d="M12.5 9C12.7761 9 13 8.77614 13 8.5C13 8.22386 12.7761 8 12.5 8C12.2239 8 12 8.22386 12 8.5C12 8.77614 12.2239 9 12.5 9Z" fill="white"/>
<path d="M5.5 4C5.77614 4 6 3.77614 6 3.5C6 3.22386 5.77614 3 5.5 3C5.22386 3 5 3.22386 5 3.5C5 3.77614 5.22386 4 5.5 4Z" fill="white"/>
<path d="M14.5 9C14.7761 9 15 8.77614 15 8.5C15 8.22386 14.7761 8 14.5 8C14.2239 8 14 8.22386 14 8.5C14 8.77614 14.2239 9 14.5 9Z" fill="white"/>
<path d="M7.5 4C7.77614 4 8 3.77614 8 3.5C8 3.22386 7.77614 3 7.5 3C7.22386 3 7 3.22386 7 3.5C7 3.77614 7.22386 4 7.5 4Z" fill="white"/>
<path d="M16.5 9C16.7761 9 17 8.77614 17 8.5C17 8.22386 16.7761 8 16.5 8C16.2239 8 16 8.22386 16 8.5C16 8.77614 16.2239 9 16.5 9Z" fill="white"/>
</svg>
