<svg width="53" height="16" viewBox="0 0 53 16" fill="none" xmlns="http://www.w3.org/2000/svg">
<path d="M21.2442 0.324311L18.478 15.7838H22.7933L25.4488 0.324311H21.2442Z" fill="#F7F7F7"/>
<path d="M14.9374 0.324311L10.7328 10.8108L10.2902 9.18918C9.40503 7.24323 7.08144 4.54053 4.31527 2.8108L8.18791 15.6757H12.7244L19.4739 0.324311H14.9374Z" fill="#F7F7F7"/>
<path d="M8.63048 1.40541C8.40918 0.432438 7.63465 0.216223 6.74948 0.108115H0.110647L0 0.540547C5.20042 1.72974 8.63048 4.75676 10.0689 8.32433L8.63048 1.40541Z" fill="#F7F7F7"/>
<path d="M34.19 3.24324C35.6284 3.24324 36.6242 3.56757 37.3987 3.78378L37.8413 4L38.3946 0.648649C37.5094 0.324325 36.1816 0 34.5219 0C30.3173 0 27.2192 2.05405 27.2192 5.08108C27.2192 7.24324 29.3215 8.54054 30.9812 9.2973C32.6409 10.0541 33.1941 10.4865 33.1941 11.2432C33.1941 12.3243 31.8664 12.7568 30.6493 12.7568C28.8789 12.7568 27.9937 12.5405 26.5553 12L26.0021 11.7838L25.4488 15.1351C26.4447 15.5676 28.3257 15.8919 30.2067 16C34.7432 16 37.62 13.9459 37.7307 10.7027C37.7307 8.97297 36.6242 7.56757 34.0793 6.48649C32.5303 5.72973 31.6451 5.2973 31.6451 4.54054C31.7557 4 32.5303 3.24324 34.19 3.24324Z" fill="#F7F7F7"/>
<path d="M49.4593 0.324311H46.1399C45.1441 0.324311 44.3695 0.648636 43.9269 1.62161L37.5094 15.7838H42.0459C42.0459 15.7838 42.8205 13.8378 42.9311 13.5135C43.3737 13.5135 47.7996 13.5135 48.4635 13.5135C48.5741 14.054 49.0167 15.7838 49.0167 15.7838H53L49.4593 0.324311ZM44.1482 10.2703C44.4802 9.40539 45.8079 5.94593 45.8079 5.94593C45.8079 5.94593 46.1399 5.08107 46.3612 4.43242L46.6931 5.72972C46.6931 5.72972 47.4676 9.40539 47.6889 10.1622H44.1482V10.2703Z" fill="#F7F7F7"/>
</svg>
